<?xml version="1.0" encoding="UTF-8"?>
<svg version="1.1" viewBox="0 0 2048 984" width="1280" height="1280" xmlns="http://www.w3.org/2000/svg">
<path transform="translate(997)" d="m0 0h133l12 11 11 9 17 13 14 9 18 10 15 9 5 4 1 5-1 16-1 32v33l3 7 5 5 9 7 13 8 23 14 17 11 16 10 17 11 26 16 19 13 7 8v135l-2 9 2 5v34l-1 14-4 6-15 11-20 12-42 24-28 17-20 12-17 11-56 34-22 14-17 11-17 10-15 9-26 16-12 9-7 7-6-1-24-15-26-16-21-13-26-15-23-14-19-12-29-17-21-13-19-12-26-16-21-13-29-17-15-10-4-6-2-25 2-3v-10l-3-18v-7l3-10v-5l-2-3v-9l1-10-1-5v-8l2-4v-7l-2-9v-17l1-8 1-38 2-5 18-18 12-11 16-12 20-13 23-14 13-8 23-12 18-12 4-7 4-17 1-8v-67l7-8 14-11 18-14 24-16 23-15 6-4z" fill="#92856C"/>
<path transform="translate(1218,171)" d="m0 0 7 1 21 10 16 9 20 12 12 6 13 8 21 13 34 20 9 7 4 2v7l-11 8-85 51-22 14-31 19-5 1-2 26-1 16 2 6-2 8v21l-1 16 5 7-1 5-4 4-8 4-21 14-18 11-24 15-35 21-18 10-23 12-5-1-18-10-21-12-23-13-10-6-23-14-20-13-9-6-6-3v-2l-4-2-9-7-3-8h2v-2l18-11 19-11 14-8 40-24 27-15 19-11 1-9 2-2-1-61-1-40 3-1 1 4 5 2-2-8 23-13 26-16 17-11 22-14 40-24 21-11z" fill="#638143"/>
<path transform="translate(997)" d="m0 0h133l12 11 11 9 17 13 14 9 18 10 15 9 5 4 1 5-1 16-2 4-1-11-5-10-5-4-8 1-23 13-16 9-28 17-21 13-25 15-20 13-8 5-5-1-5-3-6-2-16-8-22-12-21-13-26-15-24-14-14-7-7-2-1 14-1 27-1 7v37l1 9-6-1v2l5 2 17 12 11 7 14 8 17 9 23 14 17 11 17 10 5 2v2l6 2 17 10 1 3-15 8-19 12-28 17-22 13-16 10-22 13-26 15-3 2h-8l-9-6-11-7-28-17-18-10-23-13-24-13-12-5-7-2v-2l-5-2-10-3 6-7 12-12 12-11 16-12 20-13 23-14 13-8 23-12 18-12 4-7 4-17 1-8v-67l7-8 14-11 18-14 24-16 23-15 6-4z" fill="#FDF0DA"/>
<path transform="translate(1204,64)" d="m0 0h5l6 5 5 10 1 11v61l3 7 5 5 9 7 13 8 23 14 17 11 16 10 17 11 26 16 19 13 4 5-4-2-15-10-9-5-27-16-13-8-15-9-18-10-19-11-19-10-12-5-7 1-25 13-18 11-23 14-17 11-22 14-26 16-17 9 1 8-6-2v-4l-2 2 2 95v5l-2 2-1 9-15 9-27 15-17 10-20 12-11 7-11 6-26 15-9 6-5 2-6 1-2 3h-2l-2-16v-16l-2-18 2-4v-23l-1-9v-11l-1-6-5-2-23-13-24-14-22-12-22-13-22-14-13-8-6-4 2-1 13 5 21 11 23 13 15 9 11 6 17 10 11 7 13 8 4 3h8l24-14 22-13 18-11 28-17 22-13 24-15 11-6h2l-4-4-20-11v-2l-7-2-20-12-17-11-22-13-15-8-19-11-18-13-8-5v-2l6 1-2-9v-41l1-3 1-27 1-11 1-3 7 1 16 8 19 11 24 14 28 17 24 13 16 8 6 2 3 2 5-1 23-15 28-17 26-16 20-12 24-14 18-10z" fill="#BFB9AC"/>
<path transform="translate(1375,261)" d="m0 0h1v135l-2 9 2 5v34l-1 14-4 6-15 11-20 12-42 24-28 17-20 12-17 11-56 34-22 14-17 11-17 10-15 9-26 16-12 9-3 2v-93l3-5 3-2h3v-2l16-8 20-11 17-10 28-17 19-12 20-12 24-16 5-3 2-2-1-6-4-5 1-23v-14l2-10-2-5 1-15 2-26 9-4 12-7 16-10 22-14 22-13 50-30 19-12 4-3z" fill="#BFB9AC"/>
<path transform="translate(1064,363)" d="m0 0 4 2 10 8v2l6 3v2l4 2 10 6 9 6 12 5 16 8 23 13 18 12v2l5 2 9 6 9 5 1 3 5 1 7 1 8 6-2 4-2 5-11 8-17 11-18 11-24 15-35 21-18 10-23 12-5-1-18-10-21-12-23-13-10-6-23-14-20-13-9-6-6-3v-2l-4-2-9-7-3-8h2v-2l18-11 19-11 14-8 40-24 27-15 22-13 1-1z" fill="#4369A7"/>
<path transform="translate(997)" d="m0 0h133l12 11 11 9 17 13 14 9 18 10 15 9 5 4 1 5-1 16-2 4-1-11-5-10-5-4-8 1-23 13-16 9-28 17-21 13-25 15-20 13-8 5-5-1-5-3-6-2-4-3-4-5-29-16-28-16-18-11-24-14-25-12-4-1-1 13-1 7-1 46-1 5h-1l-1-67 7-8 14-11 18-14 24-16 23-15 6-4z" fill="#FDF1DA"/>
<path transform="translate(1073,257)" d="m0 0 3 1 1 4 9 6 21 12 19 11 12 8 19 12 20 12 16 11 16 10 9 4-4 1-2-1v2l10 2 6 1 10-5 23-14 2 1-32 20-5 3-5 1-2 26-1 16 2 6-2 8v21l-1 16 5 7-1 5-4 4-2-1 3-6v-4l-6-4-7-1-5-2-4-4-9-5-11-7-4-4-18-11-20-12-20-9-10-5-14-9-6-4v-2l-6-3v-2l-4-2-10-8-1 10-4 2v-8l2-2-1-61-1-40 3-1 1 4 5 2-2-8z" fill="#91846B"/>
<path transform="translate(914,74)" d="m0 0 7 1 16 8 19 11 24 14 28 17 24 13 16 8v2l5 2 7 3 1 1 1 106-4 1-15-9-11-6v-2l-7-2-20-12-17-11-22-13-15-8-19-11-18-13-8-5v-2l6 1-2-9v-41l1-3 1-27 1-11z" fill="#92856C"/>
<path transform="translate(1727,814)" d="m0 0h13l22 7 13-4 13-3h13l10 4 7 4 7 2 11-4 17-6h18l10 3 9 5 5 5 4 8 3 18 3 38 2 21 4 18v7l-6 2h-16l-7-3-4-6-1-3v-62l-2-12-4-11-6-7-5-3-4-1h-11l-9 3-3 4v30l1 33 2 18 2 13v5l-9 2h-19l-10-2 1-8 4-17 2-22v-18l-2-15-4-11-6-10-5-4-3-1h-19l-10 4-4 6-2 6-1 7v50l2 14 4 13v6l-4 2h-24l-9-3v-7l5-11v-59l-1-16-3-12-2-5v-7l5-4z" fill="#94886F"/>
<path transform="translate(565,814)" d="m0 0 16 2 12 7 4 3 6-2 13-6 12-3 14-1 10 2 8 4 7 8 5 12 4 20 2 28 2 30 3 17v3h-17l-13-4-5-6v-24l1-17v-26l-2-10-5-12-5-5-5-3-11-1-12 2-4 3v29l1 34 1 17 4 15v6l-2 1h-32l-4-2 1-8 6-9 1-5v-22l-2-26-3-14-4-10-7-8-9-3h-18l-9 4-3 4-2 16v21l1 22 3 22 2 11v7l-2 1h-29l-5-2-1-1v-8l2-6 1-9 1-46-1-27-5-17v-5l2-1h21l14 3 5 2 16-4 7-2z" fill="#94876F"/>
<path transform="translate(1174,755)" d="m0 0h12l19 3 18 5 6 4 4 9v11l-3 5-5 1-7-4-8-8-10-7-10-4-12-1-13 3-9 6-6 7-4 8-1 5v13l5 8 7 6 11 5 12 3 23 2 13 4 10 5 8 8 6 10 3 8 1 6v9l-5 15-5 10-8 10-7 7-13 8-12 5-9 2-10 1h-17l-17-2-9-4-5-6-7-19-1-4v-7l2-1 8 6 12 13 16 6 14 2 13-1 13-5 11-8 7-11 2-7v-11l-6-12-8-7-10-4-34-6-12-4-10-6-8-7-6-10-3-11v-15l4-15 7-11 10-10 12-7 12-3z" fill="#736954"/>
<path transform="translate(108,760)" d="m0 0h80l18 2 9 4 8 6 6 8 5 11 2 8v19l-4 10-7 9-8 7-12 7-11 3-16 2-37 1v28l3 34 3 14v5h-12l-25-3-2-4 5-9 1-4v-76l-1-66-6-9-1-5zm49 13-16 1-2 3v50l1 15 3 2 6 1h27l12-3 11-8 6-9 3-8v-15l-4-11-9-10-10-5-7-2z" fill="#746A55"/>
<path transform="translate(355,814)" d="m0 0h9l1 78 2 14 4 9 8 6 10 4h11l18-5 2-5 2-19v-38l-2-33v-9l26-1 4 2 1 85 2 19 2 11v5l-4 2-14-1-10-5-11-2-23 5-8 3-7 1h-11l-8-3-8-7-5-8-5-15-2-13-2-52-5-26z" fill="#93876E"/>
<path transform="translate(886,816)" d="m0 0h8l14 3 16 8 8 7 9 13 6 13 4 16v7l-4 14-7 13-8 10-8 8-11 7-16 5-5 1h-18l-11-3-10-5-11-9-9-10-7-12-4-14v-20l5-15 7-12 10-11 13-8 15-4zm-5 11-10 4-9 7-6 9-4 9-2 9v19l3 16 5 10 9 10 11 8 5 2h10l8-4 12-11 5-8 3-12v-26l-4-16-7-11-6-7-9-6-5-2z" fill="#93876E"/>
<path transform="translate(1633,814)" d="m0 0h12l16 2 10 4 9 7 8 11 4 9 1 10v14l-2 5-1 1h-76v10l3 14 6 12 8 7 7 3 14 2 14-3 17-6 4 1-1 7-7 10-7 4-11 2h-21l-18-2-12-4-9-6-8-9-7-14-2-8-1-9v-16l3-17 5-13 7-10 7-7 11-7 9-3zm4 16-10 3-6 5-4 9-1 5v10l6 4 5 2h37l8-3v-13l-5-12-8-7-8-3z" fill="#94886F"/>
<path transform="translate(1430,814)" d="m0 0 17 1 12 3 12 6 5 5 1 5-2 13-3 4-5-1-10-10-9-6-9-3h-13l-9 4-6 5-1 7 5 5 14 7 27 9 14 9 7 7 5 10 1 10-4 11-7 9-12 9-10 5-15 3h-17l-15-3-8-6-5-6-3-9 1-7 1-1h5l10 7 12 7 10 3 12-1 10-4 7-6 2-5v-6l-6-7-12-5-16-5-16-8-9-7-7-7-3-7v-12l5-12 8-9 10-6 11-4z" fill="#92856C"/>
<path transform="translate(1976,814)" d="m0 0h13l16 3 12 5 5 5 2 3v15l-4 6-5-2-7-6-6-7-8-4-12-2-9 3-4 4-1 7 3 7 5 5 10 5 22 8 11 7 8 9 2 6v19l-3 8-6 8-10 7-11 5-13 3h-24l-10-3-8-6-6-12v-10l2-4 4 1 10 9 9 6 11 4h10l10-3 9-6 4-6 1-4-4-8-5-4-32-11-12-6-10-9-3-7-1-4v-16l3-9 9-10 14-7z" fill="#93866E"/>
<path transform="translate(1282,818)" d="m0 0h8l3 5 5 20 9 25 11 24 7 12v2h2l2-5 10-24 10-28 1-7v-16l3-5 1-1h11l4 4 1 2 1 12-6 18-9 20-28 58-14 31-8 18-1 1h-15l10-23 6-13 2-9-15-39-9-21-14-30-8-15-7-12v-2l19-1z" fill="#958870"/>
<path transform="translate(765,814)" d="m0 0h15l14 3 9 5 5 5 4 8 2 8v11l-8-6-7-7-11-7-10-3h-15l-10 4-8 7-5 7-4 13-1 13 3 17 6 14 8 10 10 6 8 2h11l12-3 15-7 3 1 1 6-4 6-7 7-6 4-11 3-14 1-17-2-10-3-10-5-9-7-9-12-4-9-2-13v-11l3-19 6-17 8-11 7-7 14-8 11-3z" fill="#94876F"/>
<path transform="translate(281,757)" d="m0 0h10l1 1 1 154 3 25-6 2h-13l-12-1-3-2v-11l2-6 1-19v-103l-1-16-6-17-1-4 13-2z" fill="#766C56"/>
<path transform="translate(1529,781)" d="m0 0 8 1 3 3 1 7-1 21h11l10 2 6 4 1 9-3 3-21 3-3 1-1 18v34l1 21 3 12 8 9 2 6-3 2h-8l-15-3-8-4-3-4-4-18-1-13v-51l-2-7-9-6-2-5 5-6 5-2 4-18 3-12 4-5z" fill="#948870"/>
<path transform="translate(999,780)" d="m0 0 5 1 2 3 1 23 1 6 18 3 8 4 2 7-5 4-20 2-3 1-1 46v30l2 9 10 10 2 6-4 1-19-2-10-3-3-4-3-13-2-15-1-65-6-1-3-3-1-3 3-5 7-8 1-4 1-16 5-8 3-3z" fill="#736954"/>
<path transform="translate(108,760)" d="m0 0h80l18 2 9 4 8 6 6 8 5 11 2 8v19l-4 10-7 9-8 7-12 7-11 3-16 2-38 1v-15l9 2h27l12-3 11-8 6-10 2-6v-15l-4-11-8-9-10-5-7-2-21-1-16 1-2 2-1-9-16-2-3 7-2 4-1 11-1 54h-1l-1-66-6-9-1-5z" fill="#998D75"/>
<path transform="translate(639,817)" d="m0 0h9l11 2 7 7 5 11 4 16 2 16 2 39 3 22 1 8h-17l-13-4-5-6v-24l1-17v-26l-2-10-5-12-5-5-6-4v-7l5-5z" fill="#93866D"/>
<path transform="translate(1174,755)" d="m0 0h12l19 3 18 5 6 4 4 9v11l-3 5-5 1-7-4-8-8-10-7-10-4-12-1-13 3-9 6-6 7-4 8-2 17-2-1v-3l-6 3-5 8 1 9 3 6v2h2v2l4 2 6 4 3 1v2l24 8 19 4 13 7 3 3-1 2-9-6-9-3-27-4-16-5-10-6-8-7-6-10-3-11v-15l4-15 7-11 10-10 12-7 12-3z" fill="#94876F"/>
<path transform="translate(857,827)" d="m0 0h7l2 1 1 5-9 12-5 11-2 9v19l3 16 5 10 7 8 2 10v4h-2v2h-8l-9-4-12-11-7-10-5-10-3-11v-20l5-15 7-12 5-6 12-5z" fill="#94876F"/>
<path transform="translate(581,825)" d="m0 0h9l6 4 3 9 2 9 1 11 2 24 2 39-3 9-6 4h-15l-1-1v-42l-2-35-2-9-4-9 1-8 2-3z" fill="#736954"/>
<path transform="translate(1736,819)" d="m0 0h8v2l3 1 1 2 1 10-1 78-2 13-3 8-6 2h-7l-3-1-1-2-1-105 7-6z" fill="#746A55"/>
<path transform="translate(1807,825)" d="m0 0 10 1 7 5 1 2 3 29v8l1 5 2 18 1 11v22l-5 7-5 1-14 1-1-1v-62l-2-19-5-13-1-9 1-2h2v-2z" fill="#736954"/>
<path transform="translate(361,816)" d="m0 0h3l1 76 2 14 4 9v9l-3 5-9 1-3-1v-2h-2l-4-5v-3l-3-1-4-12-1-7v-24l1-8v-15l-1-9-2-6v-14h3l1-6z" fill="#736954"/>
<path transform="translate(1523,800)" d="m0 0 7 1 1 3h2v3l3 1 3 10v21l-2 10-1 2v11l2 7 1 2v29l-1 3-2 1-3 10-5 5-5-1-4-6-1-6-3-15v-59l2-17 2-9z" fill="#736954"/>
<path transform="translate(1881,831)" d="m0 0 7 1 6 3 3 6 5 30 3 39v10l-4 6-6 5h-10l-2-3v-3h-2l-2-9-1-44-1-7v-10l-4-13 1-4 4-6z" fill="#736954"/>
<path transform="translate(510,822)" d="m0 0 7 1 2 7 1 12-1 2-1 47 1 23-1 20-18 1-2-1-1-7 1-61 1-37 3-5z" fill="#736954"/>
<path transform="translate(1604,837)" d="m0 0h2l-1 25 3 14 1 13 3 13 4 10 3 8v7l-2 2-5 1-10-3-7-5-7-12-4-13-1-9v-16l3-17 4-11 6-5 6-1z" fill="#756B56"/>
<path transform="translate(286,762)" d="m0 0h3v48l-1 31-1 12v8l-4 20-2 14v6l-1 5-1 3 2 1-1 5 1 5-3 6-4-1v-15l2-5h-2l1-7-1-4-2-28-1-32v-34l1-18 5-3 3-9 3-4 1-3z" fill="#5C564A"/>
<path transform="translate(999,780)" d="m0 0 5 1 2 3 1 23 1 6 18 3 8 4 2 7-5 4-20 2-3 1-1 46v30l2 9 10 10 2 6-4 1-19-2-10-3-3-4-3-13-2-15-1-65-6-1-3-3-1-3 3-5 7-8 1-4 1-16 5-8 3-3zm-12 12-2 7-2 22v89l3 14 1 2 10-2 4-5 2-9 1-52 1-21v-26l-1-16-6-3z" fill="#958971"/>
<path transform="translate(1275,823)" d="m0 0h6l4 2 7 14 6 15 5 15 6 13 3 12 3 5v2l3 1 3 9 2 11-1 6-3 1-8-5-6-12-2-3v-3h-3v-2l-4-1-7-17-11-25-5-16-2-7v-7l3-7z" fill="#736954"/>
<path transform="translate(447,831)" d="m0 0 2 1 1 49 1 21v24l-6 1-2 4-2 2h-8l-3-3-2-10v-11l3-8v-16l-1-28v-15h2l1-3 5-1v-2l5-2z" fill="#7C7761"/>
<path transform="translate(654,833)" d="m0 0h5l6 4 1 4h2l3 10 2 7 1 11 2 13v21l-7 15h-7l-3-5v-2h-3l-1-6h-2l-1-8-2-34-1-19 2-9z" fill="#736954"/>
<path transform="translate(1120,900)" d="m0 0 7 4 14 15 16 6 14 2 13-1 13-5 11-8 1 2-4 8 1 5 11-4 10-8 2-1-2 4-8 8-13 8-12 5-9 2-10 1h-17l-17-2-9-4-5-6-7-19-1-4v-7z" fill="#BFB9AC"/>
<path transform="translate(723,844)" d="m0 0 6 1v2h2l3 8 1 5-1 6v21l2 13 6 21-1 6-9-2-5-4v-2l-5-2-5-7-1-8h-2l-2-5v-28l1-12 2-5h2l2-5z" fill="#736A54"/>
<path transform="translate(1976,814)" d="m0 0h13l16 3 12 5 5 5 2 3v15l-4 6-5-2-7-6-6-7-8-4-12-2-9 3-4 4-1 7 3 7 5 5 10 5 22 8-3 1-9-3-17-4-13-6v-2l-4-2-2-4 1-8 2-6-2-5h-12l-3 2 2-4 8-7 11-5z" fill="#C0BAAD"/>
<path transform="translate(211,769)" d="m0 0 8 1 7 8 5 6 4 10 1 5v19l-2 5-5 5-8 9-6 3h-5l-2-3v-9l2-8v-11l-2-12-2-7 2-1-4-10 2-6z" fill="#756B56"/>
<path transform="translate(1414,882)" d="m0 0 6 1 16 5 15 5 7 5 2 4v11l-3 9 1 4 10-3v-2h2v-2l5-5 4-7v-13l-2-8 3 3 3 9-1 10-5 10-7 8-15 10-13 4-7 1h-17l-15-3-8-6-5-6-3-9 1-7 1-1h5l10 7 12 7 10 3 12-1 10-4 7-6 2-5v-6l-6-7-12-5-16-5-9-4z" fill="#C0BAAD"/>
<path transform="translate(1354,820)" d="m0 0h11l4 4 1 2 1 12-6 18-9 20-28 58-3 7-1-3 4-9 6-16-3-9h-2v2h-2l2-5 10-24 10-28 1-7v-16l3-5z" fill="#BFB9AC"/>
<path transform="translate(1430,814)" d="m0 0 17 1 12 3 12 6 5 5 1 5-2 13-3 4-5-1-10-10-9-6-9-3h-13l-9 4h-3v-2l-7-3-4 1-6 8-5 6-1 6 2 10 6 9v3l-8-8-3-7v-12l5-12 8-9 10-6 11-4z" fill="#C1BBAE"/>
<path transform="translate(1727,814)" d="m0 0h13l22 7 13-4 13-3h13l10 4 1 2-6-2h-12l-7 2-4 8 2 2-17 1-10 4-4 6-2 6-1 7v50l2 14 4 13v6l-4 2h-24l-9-3v-7l5-11h1l1 16h10l6-2 3-10 1-12 1-77-1-9-4-4h-7l-7 4-2 3h-2l1 12v20h-1l-1-16-3-12-2-5v-7l5-4z" fill="#9B9079"/>
<path transform="translate(926,836)" d="m0 0 4 1 8 11 4 10 3 18v12l-2 11-4 7-11 5h-3v-2h-2l-1-13 1-7-1-20h-2l-1-6v-8h2l-2-5-1-7 4-4z" fill="#746A55"/>
<path transform="translate(1940,906)" d="m0 0 4 1 10 9 9 6 11 4h10l10-3 9-6 6-9-1 16 7-1 7-3 2-1-2 4-5 5-9 6-12 5-10 2h-24l-10-3-8-6-6-12v-10z" fill="#C0BAAC"/>
<path transform="translate(493,816)" d="m0 0h21l10 4 2 3v6l-2 7v39l1 22 3 22 2 11v7l-2 1h-29l-5-2-1-1v-8l2-6 1-9 1-40h1v62h20v-26l-1-18 1-46 1-3-2-15-3-3-12 1-1 4-1 1-1 37h-2l-1-27-5-17v-5z" fill="#94876F"/>
<path transform="translate(843,843)" d="m0 0h2l2 6 1 16 1 2 1 15v24l-3 5-6 2-4-3v-2l-3-1-6-9-4-7v-22h2l1-7 4-10 1-2h7z" fill="#746A55"/>
<path transform="translate(757,410)" d="m0 0 5 2 19 12 39 20 21 11 3 3 13 7 23 13 18 10 20 12 1 2 6 3 1 5 10 5 22 12 12 6 17 10 13 10 17 11 12 8 1 2-5-1-20-12-9-7-18-11-18-10-8-4-17-9-8-5-9-5-7-6-7-4-10-7-14-8-10-6-16-10-23-13-22-12-8-5-14-7-21-12-8-6z" fill="#726853"/>
<path transform="translate(1861,816)" d="m0 0 20 1 9 5 5 5 4 8 3 18 3 38 2 21 4 18v7l-6 2h-16l-7-3-4-6-1-3v-17l1-38h1l1 44 1 9h2l2 6 8-1 5-2 5-6 1-2v-10l-3-39-5-30-2-6-5-1-4-2h-7l-2 5-2 2 4 18h-2l-4-13-6-8-7-5-1-14z" fill="#948870"/>
<path transform="translate(765,814)" d="m0 0h15l14 3 9 5 5 5 4 8 2 8v11l-8-6-7-7-11-7-10-3h-15l-11 4 2-4-1-3-10-1-10 3-7 6-2-1 9-9 14-8 11-3z" fill="#BFB9AC"/>
<path transform="translate(908,67)" d="m0 0 6 1 27 13 15 9 17 10 13 8 50 28 5 6-2 1-26-14-40-24-21-12-24-14-14-5-1 14-1 27-1 7v37l1 9h-8l-1-3 2-78z" fill="#BFB9AC"/>
<path transform="translate(207,798)" d="m0 0 2 3 2 8v11l-2 8v9l1 2 7-1 6-4 9-11 1 3-7 10-9 8-12 7-11 3-16 2-38 1v-15l9 2h27l12-3 11-8 6-10 2-6z" fill="#998D75"/>
<path transform="translate(756,387)" d="m0 0 5 1 31 20 17 10 8 5 12 6 22 12 14 7 19 10 10 7 14 10 25 14 27 16 29 17 18 11-3 1-12-5-7-5-16-8-21-14-16-8-16-9-5-4-10-5-14-8-10-6-22-12-18-10-16-10-14-8-11-7-15-9-11-7-14-10z" fill="#726853"/>
<path transform="translate(1408,866)" d="m0 0 8 1 14 3 6 2 16 2 16 8 4 5v7l-3 4h-5l-4-2h-6l-5-3v-2l-11-3-17-6-2-1v-2l-4-2-8-6-1-3z" fill="#736A55"/>
<path transform="translate(758,428)" d="m0 0 5 2 15 10 9 7 16 9 14 10 24 13 20 12 13 8 20 12 16 9 26 14 17 10 8 6 25 14 13 8 2 2-5-1-22-12-23-12-14-8-11-7-15-9-24-13-18-11-11-7-25-14-21-13-11-8-24-13-15-8-4-5 3-1-3-2z" fill="#635C4D"/>
<path transform="translate(1237,859)" d="m0 0 3 3 3 8 1 6v9l-5 15-5 10-4 5-13 10-7 3h-4l-2-5 4-8 2-5 5-8 2-7 1-8 4 4 3 1h7l5-2 2-6v-13z" fill="#968971"/>
<path transform="translate(1734,836)" d="m0 0h4l2 5v10l-2 11-1 22-1 5v17l1 3v14l-5 5-3-3-1-7-1-57 1-15 3-7z" fill="#5C564A"/>
<path transform="translate(1066,297)" d="m0 0 6 2 15 8 17 10 18 12 19 12 28 15 19 11 2 3-7-1-10-2-7-4v-2l-6-2-9-6-10-4-6-2-7-4-11-6-3-3v-2h-2l-2-2v-3l-4-2-14-9-14-8-9-5-3-3z" fill="#736954"/>
<path transform="translate(749,271)" d="m0 0 5 1-1 27 1 4-2 28v15l3 1 1 6-1 5-5-1 1 40v78l-3-4-2-25 2-3v-10l-3-18v-7l3-10v-5l-2-3v-9l1-10-1-5v-8l2-4v-7l-2-9v-17l1-8 1-38z" fill="#C5BFB1"/>
<path transform="translate(639,817)" d="m0 0h9l11 2 7 7 5 11 4 16 2 16v5l-3-2-1-3-2-16-3-7v-5h-2l-1-4-5-2-3-1-5 1-2 9v8l1 6-2 3-2-10-5-12-5-5-6-4v-7l5-5z" fill="#94876F"/>
<path transform="translate(808,914)" d="m0 0 3 1 1 6-4 6-7 7-6 4-11 3-14 1-12-1 2-2h8l1-6-3-6v-2l-5-1-2-1 1-2 10 3h11l12-3z" fill="#C0BAAD"/>
<path transform="translate(753,359)" d="m0 0 3 1v2l5 1 11 7 14 9 10 6 22 14 10 7 6 3 4 5 17 10 11 6 9 4 18 10 6 4 1 5-6-1-13-8-6-3-22-13-11-7-9-5-9-7-8-6-12-8-17-11-16-9-15-10-3-4z" fill="#645C4D"/>
<path transform="translate(1071,279)" d="m0 0 5 2 19 11 27 15 17 10 17 11 18 11 16 9 15 9 6 4v2l-6-1-16-8-19-10-4-2v-2l-5-1-10-6v-2l-4-2-10-7-9-6-12-6-8-5-10-5-4-3-1-3-21-13z" fill="#736A55"/>
<path transform="translate(909,918)" d="m0 0v3l-2 3 1 5 7 1 7-4 8-7 2 1-8 8-11 7-16 5-5 1h-18l-11-3-10-5-1-2 6 2 8 1v-2h2l-2-8v-5l9 6 8 4h10l8-4z" fill="#BFB9AC"/>
<path transform="translate(1068,365)" d="m0 0 5 2 20 12 26 14 22 13 23 15 21 13 19 12 8 6v1l-7-1-5-2-4-4-9-5-11-7-4-4-18-11-20-12-20-9-10-5-14-9-6-4v-2l-6-3v-2l-4-2-6-5z" fill="#5D564A"/>
<path transform="translate(1970,870)" d="m0 0 19 4 11 2 11 3 4 2v2h2l3 5v2h2l2 5-3 2h-6l-6-3v-2l-14-3-11-4-13-7-4-5z" fill="#736954"/>
<path transform="translate(1303,923)" d="m0 0 3 4 4 8 7 12 3 2-3 9-11 25-1 1h-15l10-23 6-13 2-9-5-13z" fill="#BFB9AC"/>
<path transform="translate(857,827)" d="m0 0h7l2 1 1 5-9 12-5 11-2 9-1 17h-1l-1-15-1-5-1-13-1-6-3 3-3 5-7-1-2 6-4 13h-1l1-9 4-13 9-12 12-5z" fill="#93876E"/>
<path transform="translate(886,816)" d="m0 0h8l14 3 5 2v2l-10-3v2h-3l4 10 1 4-5-3-10-5h-9l-10 4-5 3 1-4-2-1 1-2h-9l-11 5-6 2 4-5 13-8 15-4z" fill="#C0BAAC"/>
<path transform="translate(270,758)" d="m0 0 4 1-8 1 1 26 1 57 1 93h19l3-3 1-21h1l3 25-6 2h-13l-12-1-3-2v-11l2-6 1-19v-103l-1-16-6-17-1-4z" fill="#C5BEB0"/>
<path transform="translate(1788,814)" d="m0 0h13l10 4 1 2-6-2h-12l-7 2-4 8 2 2-17 1-10 4-4 6-2 6-1 7h-1v-15l1-12-1-8-3-1 3-1 12 4 13-4z" fill="#C1BAAD"/>
<path transform="translate(757,410)" d="m0 0 5 2 19 12 39 20 21 11 3 3 13 7 21 12 4 4 9 6 5 3 1 2-5-2-9-5-20-12-7-3-18-10-23-13-11-6-17-9-21-12-8-6z" fill="#655D4D"/>
<path transform="translate(756,299)" d="m0 0 6 2 13 10 16 10 17 10 14 8 12 7 28 14v2l5 2 16 10 6 5 5 6-1 4-7-5-3-6-10-6-19-10-17-9-11-6h-3l-1-3-16-9-16-10-17-11-12-9-5-5z" fill="#645D4D"/>
<path transform="translate(756,341)" d="m0 0 4 1 10 7 10 6 11 4 1 3 9 5 5 1-2 2 15 10 11 7 16 9 23 13 12 6 4 5-7-1-13-8-18-10-22-12-10-7-23-15-22-12-14-7-2-4h2z" fill="#635C4D"/>
<path transform="translate(1901,867)" d="m0 0 2 2 1 6 2 29 3 17 2 9v7l-6 2h-16l-7-3-4-6-1-3v-17l1-38h1l1 44 1 9h2l2 6 8-1 5-2 5-6 1-2v-10z" fill="#978B74"/>
<path transform="translate(565,814)" d="m0 0 16 2 7 4-2 1-9-3-10 1-4 2-3 3h-2l1 6h-21l-9 4-3 4-2 16h-1v-18l2-7v-6l-3-3-6-2v-1l9 1 6 3 15-3 10-3z" fill="#C1BBAD"/>
<path transform="translate(743,826)" d="m0 0 10 2 2 4-5 5-9 10-4 10-1 5-2-3-3-9v-3h-2v-2h-6l-7 7 1-6 6-9 10-8z" fill="#93876E"/>
<path transform="translate(762,277)" d="m0 0 5 1 38 24 16 10 3 3 16 10 19 12 9 6 1 3-6-2-4-3v-2l-6-1-10-5-4-4-3-1v-2l-4-1-8-4-10-6-9-5-9-6-14-9-8-5-2-6-10-6z" fill="#766C56"/>
<path transform="translate(1853,814)" d="m0 0h18l8 2-1 2-17-1h-3l2 11-1 3h-14l-9 3-3 4-1 21h-1l-2-29-5-3-4-3 7-1z" fill="#C0BAAD"/>
<path transform="translate(1071,320)" d="m0 0 6 2 26 17 15 9 16 9 12 8 5 3 15 10 25 14 4 4-5-1-30-15-11-8-10-5-11-7-11-6-14-9-7-5-5-5-17-12z" fill="#736954"/>
<path transform="translate(903,820)" d="m0 0 10 2 6 2 8 6 5 7-1 2-2-2-4 1-4 3h-2l1 9 2 3-1 3-2-1-1 4-4-10-9-12-5-11v-4h3z" fill="#958870"/>
<path transform="translate(756,387)" d="m0 0 5 1 31 20 17 10 8 5 12 6 22 12 4 2 4 5 8 5v1l-7-1-10-6-11-6-25-15-18-11-15-9-11-7-14-10z" fill="#635C4D"/>
<path transform="translate(355,814)" d="m0 0h9v2l-3 1h-17l-1 6h-3l1 14 2 6 1 9v18l-1 5v31l-2-1-2-11-2-52-5-26z" fill="#93866D"/>
<path transform="translate(1541,813)" d="m0 0h10l10 2 6 4 1 9-3 3-21 3-3-1z" fill="#C0BAAD"/>
<path transform="translate(1534,851)" d="m0 0h1l2 17 2 3v29l-1 3-2 1-3 10-5 5-5-1-4-6-1-6-3-15 1-14h1l1 16 3 7 2 5 5 3h2l2-9 1-7v-32z" fill="#7C7761"/>
<path transform="translate(637,814)" d="m0 0 12 1 8 3-3 1-6-1h-9l-5 3h-2v7l-1 2h-10l-12 2-4 3-1 17h-1l-1-20v-4l-3-2 14-7 15-4z" fill="#C1BBAD"/>
<path transform="translate(757,324)" d="m0 0 9 3 11 6 10 6 9 6 12 6 22 13 5 2v2l4 2 11 7 14 7 15 8 5 5-7-1-5-4-8-4-23-13-21-12-16-9-19-11-16-10-11-6z" fill="#635C4D"/>
<path transform="translate(447,856)" d="m0 0 2 2 2 44v21l-4-2-4 1-5 3-3-2v-5l5-10 3-3 2-11v-20l1-6-1-3z" fill="#746A55"/>
<path transform="translate(1727,814)" d="m0 0h13l7 2 3 3 2 8-2 34-1 36h-1v-64l-1-9-4-4h-7l-7 4-2 3h-2l1 12v20h-1l-1-16-3-12-2-5v-7l5-4z" fill="#93866E"/>
<path transform="translate(220,789)" d="m0 0 6 2 6 5 1 5 1 7-2 6-8 4-6-1-2-5-1-4v-16z" fill="#5C564A"/>
<path transform="translate(1807,890)" d="m0 0h1v44l17-1 5-5 1-5 1-14h2l4 23v5l-9 2h-19l-10-2 1-8 4-17z" fill="#92856C"/>
<path transform="translate(1587,865)" d="m0 0h3l3 8 1 4 5 13 1 10-2 7-2 1-6-1-3-3-1-4v-31z" fill="#5C564A"/>
<path transform="translate(603,867)" d="m0 0h1l1 7 2 41 4 15v6l-2 1h-32l-4-2 1-8 4-6 3-3 1 15h15l5-3 3-9-2-39z" fill="#94876F"/>
<path transform="translate(932,860)" d="m0 0 6 1 4 4 2 14v10l-5 5h-3v-2h-2l-4-24 1-7z" fill="#5C564A"/>
<path transform="translate(918,122)" d="m0 0 5 2 10 7 35 21 26 14 27 14 11 6-3 1-19-9-7-3-19-10-18-10-20-12-11-7-14-8-4-3z" fill="#736954"/>
<path transform="translate(832,413)" d="m0 0 6 1 17 10 11 6 9 4 18 10 6 4 1 5-6-1-13-8-6-3-22-13-11-7-6-4v-2z" fill="#675F4E"/>
<path transform="translate(1683,916)" d="m0 0 4 1-1 7-7 10-7 4-3 1h-7l3-2 6-3 2-5-3-2h-26l-6-2v-1l14 1 14-3z" fill="#C3BCAF"/>
<path transform="translate(912,522)" d="m0 0 6 2 16 9 19 11 8 6 25 14 13 8 2 2-5-1-22-12-23-12-14-8-11-7-15-9z" fill="#736954"/>
<path transform="translate(1633,814)" d="m0 0h12l16 2 6 2-1 2-4-1-10 2-30 1-14 4-5 2 5-5 10-6 7-2z" fill="#C0B9AC"/>
<path transform="translate(1529,781)" d="m0 0 8 1 3 3 1 7-2 3-1-9-3-2h-8l-8 5-3 7-3 23-1 20-9-6-4-5 2-5 6-5h2l4-18 3-12 4-5z" fill="#C4BDAF"/>
<path transform="translate(266,760)" d="m0 0 4 1-1 1v172h21l-2 3h-19l-1-1-1-93-1-57z" fill="#92856C"/>
<path transform="translate(1009,814)" d="m0 0 13 1 11 4 3 6-2 4-3 2-23 2 2-5 4 1h7l-1-5-6-5-1-2-4-2z" fill="#BFB9AC"/>
<path transform="translate(1210,870)" d="m0 0 8 4 5 8 6 1h6l1-6h2l1-4h1v11l-3 6-5 3h-7l-5-3-4-9-5-9z" fill="#7F7963"/>
<path transform="translate(978,816)" d="m0 0 1 2-1 11 4 7v72h-1l-1-9-1-65-6-1-3-3-1-3 3-5z" fill="#C0BAAD"/>
<path transform="translate(848,881)" d="m0 0 2 1v24l-3 5-6 2-4-3v-2l-3-1-4-8 12 3 2-9 3-10z" fill="#7C7761"/>
<path transform="translate(844,482)" d="m0 0 6 2 16 10 9 6 14 8 19 11 4 2 1 3-6-1-20-11-18-11-11-7-9-5v-3l-5-3z" fill="#6C6351"/>
<path transform="translate(2010,822)" d="m0 0 6 1 5 2 3 5v4l-16 4-5-3-1-6 6-5h2z" fill="#94876F"/>
<path transform="translate(1144,811)" d="m0 0 3 4 7 8 14 7 12 3 23 2 13 4 8 4-2 1-18-4-12-3-22-3-13-4-8-6-4-7z" fill="#988C75"/>
<path transform="translate(929,833)" d="m0 0 3 1 9 13 6 13 4 16v7l-4 14-3 6-1-3 2-9v-22l-4-14-4-10-8-10z" fill="#C2BCAE"/>
<path transform="translate(830,348)" d="m0 0 5 1 12 7 5 2 1-2 9 4v2l5 2 16 10 6 5 5 6-1 4-7-5-3-6-10-6-19-10-17-9-7-4z" fill="#736954"/>
<path transform="translate(270,758)" d="m0 0 4 1-8 1 1 26v57h-1l-1-46-1-16-6-17-1-4z" fill="#C4BDAF"/>
<path transform="translate(289,757)" d="m0 0 3 1v146h-1l-1-106z" fill="#BFB9AC"/>
<path transform="translate(748,398)" d="m0 0h1l2 77-3-4-2-25 2-3v-10l-3-18v-7z" fill="#FEF1DA"/>
<path transform="translate(1408,843)" d="m0 0 2 4 5 5 14 7 27 9 11 7-2 1-16-7-22-6-12-6-6-7z" fill="#C1BBAE"/>
<path transform="translate(141,900)" d="m0 0h1l3 25 2 8v5h-12l-18-2v-2h23z" fill="#A79D89"/>
<path transform="translate(332,816)" d="m0 0h7l1 33v45h-1l-2-52z" fill="#CCC4B5"/>
<path transform="translate(2e3 877)" d="m0 0 9 1 6 3v2h2l3 5v2h2l2 5-3 2h-6l-6-3v-2l-10-2-2-2h7l5 2h4l-1-5-3-3-9-4z" fill="#7C7761"/>
<path transform="translate(1750,904)" d="m0 0h1l2 14 4 13v6l-4 2h-24v-2h9l10-2 2-10z" fill="#C7C0B2"/>
<path transform="translate(780,466)" d="m0 0 5 2 36 20 10 6 11 6 4 4-5-1-16-9-26-14-17-11z" fill="#736954"/>
<path transform="translate(523,875)" d="m0 0h1l1 22 3 22 2 11v7l-2 1h-6l2-1-1-36z" fill="#CFC7B7"/>
<path transform="translate(1361,832)" d="m0 0 6 1 2 2v7l-4 8-2 2-5-1v-9l2-9z" fill="#92856C"/>
<path transform="translate(1121,378)" d="m0 0 9 2 29 15 14 9-1 2-11-5-31-17-9-5z" fill="#736A55"/>
<path transform="translate(985,822)" d="m0 0h10l3 2-1 6-2 4-2 1h-7l-2-1v-7z" fill="#5C564A"/>
<path transform="translate(808,461)" d="m0 0 4 2 18 10 14 8 3 3 5 4-6-1-23-13-11-7-4-3z" fill="#665E4E"/>
<path transform="translate(953,120)" d="m0 0 5 1 20 11 14 8 4 3-1 3-11-6-16-9-13-8v-2z" fill="#736954"/>
<path transform="translate(1226,765)" d="m0 0 5 5 2 6v11l-3 5-5 1-7-4-8-8h3l7 6 4 1 4-4 1-12-3-5z" fill="#BFB9AC"/>
<path transform="translate(211,769)" d="m0 0 8 1 4 4-1 2-4-1-7 4-2 10-2-3-3-7 2-6z" fill="#7D7861"/>
<path transform="translate(1543,920)" d="m0 0 6 5 4 6 1 4-3 2h-8l-7-1 4-2 2-3z" fill="#C7C0B1"/>
<path transform="translate(1807,890)" d="m0 0h1v17l-1 27-1 4-6-1 1-8 4-17z" fill="#ABA28F"/>
<path transform="translate(1414,882)" d="m0 0 6 1 16 5 15 5 7 5 2 4v6l-2 1-2-6-5-6-12-5-16-5-9-4z" fill="#D2CABA"/>
<path transform="translate(209,789)" d="m0 0 2 2 2 7-1 24-1 11 1 5h5l-2 2h-5l-2-3v-9l2-8v-11l-2-12-2-7z" fill="#7A775F"/>
<path transform="translate(1834,913)" d="m0 0h1l3 19v5l-9 2h-19l1-2 22-2z" fill="#C7C0B2"/>
<path transform="translate(420,816)" d="m0 0h4v65h-1l-2-43z" fill="#D1C9B9"/>
<path transform="translate(758,428)" d="m0 0 5 2 15 10 3 4-6-1-6-2-5-2-6-5 3-2-3-2z" fill="#736954"/>
<path transform="translate(1010,921)" d="m0 0 7 6 4 6v2l-4 1-13-1 4-3z" fill="#C2BCAE"/>
<path transform="translate(1144,811)" d="m0 0 3 4 7 8 14 7 14 4v1l-12-1-13-4-8-6-4-7z" fill="#9A8E78"/>
<path transform="translate(1282,818)" d="m0 0h8l3 5 5 20-1 3-9-20-5-5z" fill="#C1BBAD"/>
<path transform="translate(1457,830)" d="m0 0 9 1 4 2 3-1 1 5-1 1h-14l-3-2z" fill="#92856C"/>
<path transform="translate(712,861)" d="m0 0h1v42l4 9-1 2-5-10-2-13v-11z" fill="#A89E8A"/>
<path transform="translate(493,816)" d="m0 0h21v1l-17 1v21l-2-4-4-13v-5z" fill="#BFB9AC"/>
<path transform="translate(1904,915)" d="m0 0h1l-1 7-7 8-5 1h-7l-2-3v-3h-2v-6l4 6 9 1 3-1 3-4h2z" fill="#7C7761"/>
<path transform="translate(1727,814)" d="m0 0h13l7 2v1l-19-1-4 7v14l-2-3-3-8v-7l5-4z" fill="#C1BBAD"/>
<path transform="translate(1174,755)" d="m0 0h12v1l-21 3-8 1v2l-6 2-14 7 4-5 12-7 12-3z" fill="#BFB9AC"/>
<path transform="translate(1529,781)" d="m0 0 8 1 3 3 1 7-2 3-1-9-3-2h-8l-8 5-3 7-2 13h-2l1-9 3-12 4-5z" fill="#C1BBAD"/>
<path transform="translate(1619,840)" d="m0 0 1 2-3 10v10l10 5-1 2-13-2-2-2 2-10 5-14z" fill="#CAC3B4"/>
<path transform="translate(422,896)" d="m0 0h1v26l-1 2-18 2v-2l14-4 2-5z" fill="#CFC7B9"/>
<path transform="translate(355,814)" d="m0 0h9v2l-3 1h-17l-1 6h-3v14h-1v-21z" fill="#92856C"/>
<path transform="translate(748,354)" d="m0 0h1v39l-3-3v-9l1-10-1-5v-8z" fill="#FDF1DA"/>
<path transform="translate(1584,864)" d="m0 0h1l1 6 1 30 1 7-2-2-2-8-1-9v-16z" fill="#9F9683"/>
<path transform="translate(649,887)" d="m0 0h1l2 45-4-4v-24z" fill="#D8CFBE"/>
<path transform="translate(750,434)" d="m0 0h1l1 24 1 7 2 4 1 10-5-3-1-9z" fill="#BFB9AC"/>
<path transform="translate(862,406)" d="m0 0 5 2 14 7 4 5-7-1-13-8-5-4z" fill="#726853"/>
<path transform="translate(829,849)" d="m0 0 1 3-3 8-2 9v27l-2-4-1-4v-20l5-15z" fill="#D0C8B8"/>
<path transform="translate(914,173)" d="m0 0 5 2 14 8v2l4 2 13 8-2 1-16-9-18-13z" fill="#BFB9AC"/>
<path transform="translate(1538,847)" d="m0 0h1v24l-3-3-1-6v-11z" fill="#92856C"/>
<path transform="translate(892,511)" d="m0 0 5 2 15 8 1 3-6-1-18-10z" fill="#6A6150"/>
<path transform="translate(882,424)" d="m0 0h7l6 3 3 5v4l-5-2-5-5v-2l-4-1z" fill="#736954"/>
<path transform="translate(858,382)" d="m0 0 6 2 15 8 5 5-7-1-5-4-8-4-7-4z" fill="#726853"/>
<path transform="translate(1088,353)" d="m0 0 6 2 23 12 5 3-3 1-8-4-7-2v-2h-2v-2l-6-2-8-5z" fill="#736954"/>
<path transform="translate(140,770)" d="m0 0 4 1h17l14 2v1h-18l-16 1-2 2v-6z" fill="#BDB6A9"/>
<path transform="translate(108,760)" d="m0 0h3v2l3 1v13l-8-10 1-5z" fill="#FDF4E4"/>
<path transform="translate(579,920)" d="m0 0 1 3v14l-6-1-1-1 1-8 4-6z" fill="#C9C2B3"/>
<path transform="translate(292,912)" d="m0 0h1l3 25-1 1h-8l4-5z" fill="#BFB9AB"/>
<path transform="translate(142,911)" d="m0 0h1l3 18 1 9h-5z" fill="#FEF1DA"/>
<path transform="translate(1628,868)" d="m0 0h31v2l-7 1h-12l-12-2z" fill="#D1C9B9"/>
<path transform="translate(141,853)" d="m0 0 9 1h38v1l-10 1-38 1z" fill="#BFB9AC"/>
<path transform="translate(261,759)" d="m0 0 4 1v17h-2l-6-15v-2z" fill="#FEF1DA"/>
<path transform="translate(865,472)" d="m0 0 16 8 10 7 5 3 1 2-5-2-9-5-10-6-8-5z" fill="#5C564A"/>
<path transform="translate(926,836)" d="m0 0 4 1 2 4-4-1-1 2-6 3v7l-2-2-1-7 4-4z" fill="#7C7761"/>
<path transform="translate(452,921)" d="m0 0h1l2 11v5l-4 2-14-1-5-2 3-1 17 2z" fill="#C6C0B1"/>
<path transform="translate(1255,820)" d="m0 0h13v1h-5l-1 8 1 5-3-3-5-9z" fill="#C1BAAD"/>
<path transform="translate(962,171)" d="m0 0 4 1 16 8 9 7h-3l-16-9-10-6z" fill="#736954"/>
<path transform="translate(1414,882)" d="m0 0 6 1 16 5 8 3v2l-16-4-14-6z" fill="#C7C0B2"/>
<path transform="translate(756,299)" d="m0 0 6 2 12 9-2 3-15-11z" fill="#665E4E"/>
<path transform="translate(1881,831)" d="m0 0 7 1 6 3-3 2-4-3-5-1-3 1-2 7-1 7-2-3-1-6 5-7z" fill="#7C7761"/>
<path transform="translate(923,892)" d="m0 0h2v9l1 5 6 2-4 3h-3v-2h-2l-1-13z" fill="#7B775F"/>
<path transform="translate(493,816)" d="m0 0h3v19l-2-3-3-10v-5z" fill="#FDF2DD"/>
<path transform="translate(211,820)" d="m0 0 1 2-1 11 1 5h5l-2 2h-5l-2-3v-9z" fill="#7C7761"/>
<path transform="translate(289,757)" d="m0 0 3 1v37h-1l-1-27z" fill="#FDF1DB"/>
<path transform="translate(876,503)" d="m0 0 9 3 7 4 1 3-7-2-9-5z" fill="#68604F"/>
<path transform="translate(1804,918)" d="m0 0h1v20l-5-1 1-8z" fill="#FEF1DA"/>
<path transform="translate(1940,906)" d="m0 0 4 1 10 9h-3l-3-3-10-1z" fill="#FEF1DA"/>
<path transform="translate(1722,816)" d="m0 0h2l-2 14h2v7l-2-3-3-8v-7z" fill="#F6EAD4"/>
<path transform="translate(350,919)" d="m0 0 7 6 6 2 6-1-1 3-9 1-3-1v-2h-2l-4-5z" fill="#7C7761"/>
<path transform="translate(607,920)" d="m0 0 2 3 2 7v6l-2 1h-8v-1l5-1 1-3z" fill="#C3BCAF"/>
<path transform="translate(1906,912)" d="m0 0h1l4 18v7l-4 1 1-2v-8l-2-9z" fill="#CDC6B6"/>
<path transform="translate(921,869)" d="m0 0 2 3 1 18-3 2z" fill="#B7AC97"/>
<path transform="translate(886,398)" d="m0 0 6 2 6 4v2l-4 1-5-4z" fill="#736954"/>
<path transform="translate(680,924)" d="m0 0h1l2 14h-17v-1l12-1 1-1z" fill="#CFC7B8"/>
<path transform="translate(495,921)" d="m0 0h1l1 14 1 2-4-1-1-1v-8z" fill="#DDD4C2"/>
<path transform="translate(998,920)" d="m0 0v3l-3 2-8 1-1-5 8 1z" fill="#7C7761"/>
<path transform="translate(811,839)" d="m0 0h2l1 4v11l-3-2z" fill="#FDF3E2"/>
<path transform="translate(574,843)" d="m0 0h2l3 7 1 6v9h-1l-3-14z" fill="#9B8F79"/>
<path transform="translate(1139,806)" d="m0 0h3v3l-4 1-3 3-3 8-2-4 5-8z" fill="#7C7761"/>
<path transform="translate(112,924)" d="m0 0h1v11l-4-1-1-3z" fill="#E6DCC9"/>
<path transform="translate(355,814)" d="m0 0h9v2l-9 1-11-1v-1z" fill="#AEA593"/>
<path transform="translate(866,495)" d="m0 0 5 2 5 4 6 3-2 1h-3l-5-2v-3l-6-4z" fill="#716753"/>
<path transform="translate(892,511)" d="m0 0 5 2 3 2v3l-6-2-5-3z" fill="#6F6652"/>
<path transform="translate(332,816)" d="m0 0h6l-1 5-3 3-2-6z" fill="#FEF1DA"/>
<path transform="translate(215,767)" d="m0 0 5 2 8 9 1 4-5-5-5-6z" fill="#CFC7B7"/>
<path transform="translate(936,518)" d="m0 0 6 2 7 4v1l-7-1-5-3z" fill="#645D4D"/>
<path transform="translate(1722,924)" d="m0 0h1v13l-3-1v-7z" fill="#FEF1DA"/>
<path transform="translate(929,833)" d="m0 0 3 1 8 11h-3l-8-10z" fill="#C7C0B2"/>
<path transform="translate(2008,841)" d="m0 0 9 6 4 3-3 1-8-6z" fill="#FDF4E2"/>
<path transform="translate(862,494)" d="m0 0h4l7 7-5-1-6-4z" fill="#665E4E"/>
<path transform="translate(853,401)" d="m0 0 5 2 4 2v2l-6-1-5-4z" fill="#655E4E"/>
<path transform="translate(1220,459)" d="m0 0h2l-1 5-4 4-2-1 3-6z" fill="#84835F"/>
<path transform="translate(847,376)" d="m0 0 6 2 5 3v2l-5-1-6-4z" fill="#675F4E"/>
<path transform="translate(756,299)" d="m0 0 6 2 3 3-1 2-5-2z" fill="#716753"/>
</svg>
